<svg xmlns="http://www.w3.org/2000/svg"  viewBox="0 0 100 100" width="100px" height="100px"><path d="M50 47.972c-5.352 0-10.399-2.067-14.212-5.822L15.178 21.71c-.288-.285-.375-.716-.221-1.091S15.477 20 15.882 20h9.906c.263 0 .516.104.704.289l15.659 15.496c2.106 2.078 4.897 3.224 7.858 3.224 2.96 0 5.751-1.146 7.859-3.225l15.64-15.494c.187-.186.44-.29.704-.29h9.906c.405 0 .771.244.925.619s.067.806-.221 1.091L64.214 42.146C60.399 45.904 55.352 47.972 50 47.972zM18.311 22l18.883 18.727c3.434 3.382 7.983 5.245 12.806 5.245s9.372-1.863 12.809-5.248L81.689 22h-7.065l-15.35 15.206c-2.486 2.453-5.776 3.803-9.265 3.803-3.49 0-6.78-1.35-9.264-3.801L25.377 22H18.311zM84.118 80h-9.906c-.264 0-.517-.104-.704-.29l-15.64-15.494c-2.108-2.079-4.899-3.225-7.859-3.225-2.961 0-5.752 1.146-7.859 3.225L26.492 79.711C26.304 79.896 26.051 80 25.788 80h-9.906c-.405 0-.771-.244-.925-.619s-.067-.806.221-1.091l20.607-20.437c3.815-3.758 8.863-5.825 14.214-5.825s10.399 2.067 14.212 5.822l20.61 20.439c.288.285.375.716.221 1.091S84.523 80 84.118 80zM74.624 78h7.065L62.806 59.273c-3.434-3.382-7.983-5.245-12.806-5.245s-9.372 1.863-12.809 5.248L18.311 78h7.066l15.367-15.207c2.485-2.452 5.775-3.802 9.265-3.802 3.489 0 6.779 1.35 9.264 3.801 0 .001.001.001.001.002L74.624 78z"/></svg>